<svg enable-background="new 0 0 256 256" height="256" viewBox="0 0 256 256" width="256" xmlns="http://www.w3.org/2000/svg"><path d="m241.4 112.608h-169.956l15.808 86.243h135.738l18.625-86.253c-.073.002-.143.01-.215.01z" fill="#fc3850"/><circle cx="186.947" cy="231.004" fill="#2a4a97" r="22.495"/><circle cx="114.637" cy="231.004" fill="#2a4a97" r="22.495"/><path d="m224.829 198.851h-137.577l-26.846-146.458c-.698-3.806-4.014-6.569-7.883-6.569h-40.071c-4.426 0-8.014 3.588-8.014 8.014s3.588 8.014 8.014 8.014h33.392l26.846 146.458c.698 3.806 4.014 6.569 7.883 6.569h18.398c4.051-3.937 9.571-6.37 15.666-6.37s11.615 2.434 15.666 6.37h40.979c4.051-3.937 9.571-6.37 15.666-6.37s11.615 2.434 15.666 6.37h22.216c4.426 0 8.014-3.588 8.014-8.014-.001-4.426-3.589-8.014-8.015-8.014z" fill="#c5e3ff"/><path d="m241.4 94.393h-57.422c-8.192 5.734-18.157 9.109-28.916 9.109s-20.724-3.375-28.916-9.109h-58.041l3.339 18.215h169.956c3.458 0 6.287-2.829 6.287-6.287v-5.641c0-3.458-2.829-6.287-6.287-6.287z" fill="#f9677f"/><circle cx="186.947" cy="231.004" fill="#c5e3ff" r="9.119"/><circle cx="114.637" cy="231.004" fill="#c5e3ff" r="9.119"/><g fill="#f9677f"><path d="m107.48 131.149h-.542c-3.945 0-7.173 3.228-7.173 7.173v32.443c0 3.945 3.228 7.173 7.173 7.173h.542c3.945 0 7.173-3.228 7.173-7.173v-32.443c0-3.945-3.228-7.173-7.173-7.173z"/><path d="m139.027 131.149h-.542c-3.945 0-7.173 3.228-7.173 7.173v32.443c0 3.945 3.228 7.173 7.173 7.173h.542c3.945 0 7.173-3.228 7.173-7.173v-32.443c0-3.945-3.228-7.173-7.173-7.173z"/><path d="m170.574 131.149h-.542c-3.945 0-7.173 3.228-7.173 7.173v32.443c0 3.945 3.228 7.173 7.173 7.173h.542c3.945 0 7.173-3.228 7.173-7.173v-32.443c0-3.945-3.227-7.173-7.173-7.173z"/><path d="m202.122 131.149h-.542c-3.945 0-7.173 3.228-7.173 7.173v32.443c0 3.945 3.228 7.173 7.173 7.173h.542c3.945 0 7.173-3.228 7.173-7.173v-32.443c0-3.945-3.228-7.173-7.173-7.173z"/></g><circle cx="155.062" cy="53.002" fill="#a0d85d" r="50.5"/><circle cx="155.062" cy="53.002" fill="#66bc24" r="38.25"/><path d="m150.64 70.401c-1.537 0-3.073-.586-4.246-1.759l-11.006-11.006c-2.344-2.344-2.344-6.146 0-8.49 2.345-2.344 6.146-2.344 8.491 0l6.76 6.76 16.45-16.451c2.345-2.344 6.146-2.344 8.491 0 2.344 2.344 2.344 6.146 0 8.49l-20.696 20.696c-1.171 1.173-2.707 1.76-4.244 1.76z" fill="#edf4fc"/><path d="m222.989 201.351h-135.737c-1.207 0-2.241-.862-2.459-2.049l-15.808-86.243c-.134-.729.063-1.481.539-2.051s1.179-.899 1.92-.899h169.916c.052-.003.153-.009.17-.009.744-.017 1.509.305 2.003.896.493.591.688 1.377.524 2.131l-18.625 86.253c-.247 1.15-1.265 1.971-2.443 1.971zm-133.654-5h131.636l17.543-81.243h-164.07z"/><path d="m186.947 255.998c-13.782 0-24.994-11.212-24.994-24.994s11.212-24.995 24.994-24.995 24.995 11.212 24.995 24.995c0 13.782-11.213 24.994-24.995 24.994zm0-44.989c-11.024 0-19.994 8.97-19.994 19.995s8.97 19.994 19.994 19.994c11.025 0 19.995-8.969 19.995-19.994s-8.969-19.995-19.995-19.995z"/><path d="m155.062 106.002c-29.224 0-53-23.776-53-53s23.776-53 53-53c29.225 0 53 23.776 53 53s-23.775 53-53 53zm0-101c-26.467 0-48 21.533-48 48s21.533 48 48 48 48-21.533 48-48-21.533-48-48-48z"/><path d="m114.637 255.998c-13.782 0-24.995-11.212-24.995-24.994s11.212-24.995 24.995-24.995 24.995 11.212 24.995 24.995c0 13.782-11.213 24.994-24.995 24.994zm0-44.989c-11.025 0-19.995 8.97-19.995 19.995s8.97 19.994 19.995 19.994 19.995-8.969 19.995-19.994-8.97-19.995-19.995-19.995z"/><path d="m224.829 217.379h-22.216c-.65 0-1.275-.254-1.742-.707-3.758-3.652-8.703-5.663-13.924-5.663-5.22 0-10.165 2.011-13.924 5.663-.467.454-1.092.707-1.742.707h-40.979c-.65 0-1.275-.253-1.742-.707-3.758-3.652-8.703-5.663-13.924-5.663s-10.166 2.011-13.923 5.663c-.466.453-1.091.707-1.742.707h-18.398c-5.077 0-9.426-3.625-10.342-8.619l-26.47-144.408h-31.309c-5.798 0-10.515-4.717-10.515-10.514s4.717-10.514 10.515-10.514h40.071c5.077 0 9.426 3.625 10.342 8.618l26.47 144.41h135.494c5.797 0 10.514 4.717 10.514 10.514s-4.717 10.513-10.514 10.513zm-21.231-5h21.231c3.04 0 5.514-2.474 5.514-5.514s-2.474-5.514-5.514-5.514h-137.577c-1.207 0-2.241-.862-2.459-2.049l-26.846-146.459c-.48-2.619-2.762-4.52-5.424-4.52h-40.071c-3.041 0-5.515 2.474-5.515 5.514s2.474 5.514 5.515 5.514h33.392c1.207 0 2.241.862 2.459 2.049l26.846 146.458c.48 2.619 2.761 4.52 5.424 4.52h17.414c4.594-4.116 10.466-6.37 16.65-6.37s12.056 2.254 16.65 6.37h39.01c4.595-4.115 10.468-6.37 16.65-6.37 6.185.001 12.057 2.256 16.651 6.371z"/><path d="m241.399 115.108h-169.955c-1.207 0-2.241-.862-2.459-2.049l-3.339-18.215c-.134-.729.063-1.481.539-2.051s1.178-.899 1.92-.899h58.042c.513 0 1.013.158 1.434.452 8.092 5.664 17.595 8.657 27.482 8.657 9.888 0 19.391-2.994 27.482-8.657.42-.294.921-.452 1.434-.452h57.421c4.846 0 8.787 3.942 8.787 8.787v5.641c0 4.845-3.942 8.786-8.788 8.786zm-167.872-5h167.872c2.088 0 3.787-1.699 3.787-3.787v-5.641c0-2.088-1.699-3.787-3.787-3.787h-56.644c-8.792 5.962-19.041 9.109-29.693 9.109s-20.901-3.147-29.694-9.109h-54.263z"/><path d="m155.062 93.752c-22.47 0-40.75-18.28-40.75-40.75s18.28-40.75 40.75-40.75 40.75 18.28 40.75 40.75-18.28 40.75-40.75 40.75zm0-76.5c-19.713 0-35.75 16.038-35.75 35.75s16.037 35.75 35.75 35.75 35.75-16.038 35.75-35.75-16.037-35.75-35.75-35.75z"/><path d="m150.641 72.901c-2.271 0-4.406-.885-6.014-2.491l-11.005-11.006c-1.606-1.606-2.491-3.742-2.491-6.013s.885-4.407 2.491-6.013c3.314-3.314 8.71-3.314 12.026-.001l4.992 4.994 14.683-14.683c3.314-3.315 8.71-3.316 12.026 0 1.606 1.606 2.491 3.742 2.491 6.013s-.885 4.407-2.491 6.013l-20.696 20.696c-1.605 1.606-3.741 2.491-6.012 2.491zm-11.006-23.011c-.897 0-1.794.341-2.478 1.024-.662.662-1.026 1.542-1.026 2.477 0 .936.364 1.816 1.026 2.478l11.005 11.005c1.324 1.323 3.633 1.324 4.955 0l20.697-20.696c.662-.662 1.026-1.542 1.026-2.478s-.364-1.815-1.026-2.477c-1.367-1.366-3.589-1.366-4.956 0l-16.45 16.451c-.469.469-1.104.732-1.768.732-.663 0-1.299-.264-1.768-.732l-6.76-6.761c-.682-.682-1.58-1.023-2.477-1.023z"/><path d="m251.562 106.002h-181.788c-1.381 0-2.5-1.119-2.5-2.5s1.119-2.5 2.5-2.5h181.788c1.381 0 2.5 1.119 2.5 2.5s-1.119 2.5-2.5 2.5z"/><path d="m186.947 242.623c-6.407 0-11.619-5.212-11.619-11.619s5.212-11.62 11.619-11.62 11.619 5.212 11.619 11.62c0 6.407-5.212 11.619-11.619 11.619zm0-18.239c-3.649 0-6.619 2.97-6.619 6.62s2.97 6.619 6.619 6.619 6.619-2.969 6.619-6.619-2.969-6.62-6.619-6.62z"/><path d="m114.637 242.623c-6.407 0-11.619-5.212-11.619-11.619s5.212-11.62 11.619-11.62 11.62 5.212 11.62 11.62c-.001 6.407-5.213 11.619-11.62 11.619zm0-18.239c-3.65 0-6.619 2.97-6.619 6.62s2.969 6.619 6.619 6.619 6.62-2.969 6.62-6.619-2.97-6.62-6.62-6.62z"/><path d="m107.48 180.438h-.542c-5.333 0-9.673-4.339-9.673-9.673v-32.443c0-5.333 4.339-9.673 9.673-9.673h.542c5.333 0 9.673 4.339 9.673 9.673v32.443c0 5.334-4.34 9.673-9.673 9.673zm-.542-46.789c-2.577 0-4.673 2.096-4.673 4.673v32.443c0 2.577 2.096 4.673 4.673 4.673h.542c2.577 0 4.673-2.096 4.673-4.673v-32.443c0-2.577-2.096-4.673-4.673-4.673z"/><path d="m139.027 180.438h-.542c-5.334 0-9.673-4.339-9.673-9.673v-32.443c0-5.333 4.339-9.673 9.673-9.673h.542c5.334 0 9.673 4.339 9.673 9.673v32.443c0 5.334-4.339 9.673-9.673 9.673zm-.542-46.789c-2.576 0-4.673 2.096-4.673 4.673v32.443c0 2.577 2.097 4.673 4.673 4.673h.542c2.576 0 4.673-2.096 4.673-4.673v-32.443c0-2.577-2.097-4.673-4.673-4.673z"/><path d="m170.574 180.438h-.541c-5.334 0-9.674-4.339-9.674-9.673v-32.443c0-5.333 4.34-9.673 9.674-9.673h.541c5.334 0 9.673 4.339 9.673 9.673v32.443c0 5.334-4.339 9.673-9.673 9.673zm-.541-46.789c-2.577 0-4.674 2.096-4.674 4.673v32.443c0 2.577 2.097 4.673 4.674 4.673h.541c2.576 0 4.673-2.096 4.673-4.673v-32.443c0-2.577-2.097-4.673-4.673-4.673z"/><path d="m202.122 180.438h-.542c-5.334 0-9.673-4.339-9.673-9.673v-32.443c0-5.333 4.339-9.673 9.673-9.673h.542c5.334 0 9.673 4.339 9.673 9.673v32.443c0 5.334-4.339 9.673-9.673 9.673zm-.542-46.789c-2.576 0-4.673 2.096-4.673 4.673v32.443c0 2.577 2.097 4.673 4.673 4.673h.542c2.576 0 4.673-2.096 4.673-4.673v-32.443c0-2.577-2.097-4.673-4.673-4.673z"/></svg>