<?xml version="1.0"?>
<svg xmlns="http://www.w3.org/2000/svg" xmlns:xlink="http://www.w3.org/1999/xlink" xmlns:svgjs="http://svgjs.com/svgjs" version="1.1" width="512" height="512" x="0" y="0" viewBox="0 0 510 510" style="enable-background:new 0 0 512 512" xml:space="preserve" class=""><g><g xmlns="http://www.w3.org/2000/svg"><path d="m427.025 0c-66.148 0-259.818 0-344.051 0l-82.974 99.569v36.498l.151 1.058c3.622 25.313 21.514 45.834 44.849 54.025v318.85h420v-318.85c23.336-8.191 41.227-28.713 44.849-54.025l.151-1.058v-36.498zm-14.05 30 50 60h-63.705l-30-60zm-37.975 330h-30v-75h30zm-60-105v105h-60v-60h-150v60h-30v-165.432c16.919-1.877 32.197-10.006 43.17-22.122 23.375 29.172 67.126 30.2 91.83 2.177 23.978 27.199 66.076 27.139 90 0 24.716 28.037 68.467 26.981 91.83-2.177 10.973 12.116 26.251 20.245 43.17 22.122v165.432h-30v-105zm-90 105h-90v-30h90zm-30-240v15c0 16.542-13.458 30-30 30s-30-13.458-30-30v-15zm90 0v15c0 16.542-13.458 30-30 30s-30-13.458-30-30v-15zm90 15c0 16.542-13.458 30-30 30s-30-13.458-30-30v-15h60zm-39.271-105 30 60h-53.022l-10-60zm-63.436 0 10 60h-54.586l10-60zm-98.023 0h33.023l-10 60h-53.023zm-77.245 0h43.704l-30 60h-63.704zm-67.025 103.84v-13.84h75v13.84c-3.042 17.832-18.988 31.16-37.5 31.16s-34.458-13.328-37.5-31.16zm105 346.16v-30h240v30zm270 0v-60h-300v60h-30v-90h360v90zm37.5-315c-18.512 0-34.459-13.328-37.5-31.16v-13.84h75v13.84c-3.041 17.832-18.988 31.16-37.5 31.16z" fill="#ffc107" data-original="#000000" style="" class=""/></g></g></svg>
