<?xml version="1.0"?>
<svg xmlns="http://www.w3.org/2000/svg" xmlns:xlink="http://www.w3.org/1999/xlink" xmlns:svgjs="http://svgjs.com/svgjs" version="1.1" width="150" height="150" x="0" y="0" viewBox="0 0 426.66667 426.66667" style="enable-background:new 0 0 512 512" xml:space="preserve" class=""><rect width="426.66667" height="426.66667" rx="20" ry="20" fill="#ffc107" shape="rounded"/><g transform="matrix(0.7,0,0,0.7,64.00019531250001,64.00019531250001)"><path xmlns="http://www.w3.org/2000/svg" d="m405.332031 192h-170.664062v-170.667969c0-11.773437-9.558594-21.332031-21.335938-21.332031-11.773437 0-21.332031 9.558594-21.332031 21.332031v170.667969h-170.667969c-11.773437 0-21.332031 9.558594-21.332031 21.332031 0 11.777344 9.558594 21.335938 21.332031 21.335938h170.667969v170.664062c0 11.777344 9.558594 21.335938 21.332031 21.335938 11.777344 0 21.335938-9.558594 21.335938-21.335938v-170.664062h170.664062c11.777344 0 21.335938-9.558594 21.335938-21.335938 0-11.773437-9.558594-21.332031-21.335938-21.332031zm0 0" fill="#000000" data-original="#000000" style="" class=""/></g></svg>
